<svg width="97" height="55" viewBox="0 0 97 55" fill="none" xmlns="http://www.w3.org/2000/svg">
<path d="M70.6 49H67.848L65.736 45.32H64.52V49H61.96V37.8H66.44C67.5067 37.8 68.4133 38.1733 69.16 38.92C69.9067 39.6667 70.28 40.5733 70.28 41.64C70.28 42.312 70.088 42.9413 69.704 43.528C69.3307 44.1147 68.8347 44.568 68.216 44.888L70.6 49ZM66.44 40.2H64.52V43.08H66.44C66.792 43.08 67.0907 42.9413 67.336 42.664C67.592 42.3867 67.72 42.0453 67.72 41.64C67.72 41.2347 67.592 40.8933 67.336 40.616C67.0907 40.3387 66.792 40.2 66.44 40.2ZM77.1255 41.752V41H79.5255V49H77.1255V48.248C76.5708 48.8987 75.7762 49.224 74.7415 49.224C73.6855 49.224 72.7842 48.8187 72.0375 48.008C71.2908 47.1973 70.9175 46.1947 70.9175 45C70.9175 43.816 71.2908 42.8187 72.0375 42.008C72.7948 41.1867 73.6962 40.776 74.7415 40.776C75.7762 40.776 76.5708 41.1013 77.1255 41.752ZM73.3175 45C73.3175 45.5973 73.4935 46.072 73.8455 46.424C74.1975 46.776 74.6562 46.952 75.2215 46.952C75.7868 46.952 76.2455 46.776 76.5975 46.424C76.9495 46.072 77.1255 45.5973 77.1255 45C77.1255 44.4027 76.9495 43.928 76.5975 43.576C76.2455 43.224 75.7868 43.048 75.2215 43.048C74.6562 43.048 74.1975 43.224 73.8455 43.576C73.4935 43.928 73.3175 44.4027 73.3175 45ZM85.9743 41V43.304H84.3263V46.136C84.3263 46.4453 84.4489 46.648 84.6943 46.744C84.9396 46.8293 85.3663 46.856 85.9743 46.824V49C84.4596 49.16 83.4036 49.016 82.8063 48.568C82.2196 48.1093 81.9263 47.2987 81.9263 46.136V43.304H80.6463V41H81.9263V39.48L84.3263 38.76V41H85.9743ZM95.0009 45.96H89.3209C89.5875 46.7067 90.2275 47.08 91.2409 47.08C91.8915 47.08 92.4035 46.8773 92.7769 46.472L94.6969 47.576C93.9182 48.6747 92.7555 49.224 91.2089 49.224C89.8755 49.224 88.7982 48.824 87.9769 48.024C87.1769 47.224 86.7769 46.216 86.7769 45C86.7769 43.8053 87.1715 42.8027 87.9609 41.992C88.7609 41.1813 89.7849 40.776 91.0329 40.776C92.1955 40.776 93.1609 41.1813 93.9289 41.992C94.7075 42.7813 95.0969 43.784 95.0969 45C95.0969 45.3413 95.0649 45.6613 95.0009 45.96ZM89.2729 44.168H92.7129C92.4782 43.3253 91.9129 42.904 91.0169 42.904C90.0889 42.904 89.5075 43.3253 89.2729 44.168Z" fill="#6C6EF9"/>
<path d="M7.92 6.8V26.456H16.92V32H2.16V6.8H7.92ZM34.5091 29.768C32.6851 31.592 30.4291 32.504 27.7411 32.504C25.0531 32.504 22.7971 31.592 20.9731 29.768C19.1251 27.92 18.2011 25.664 18.2011 23C18.2011 20.36 19.1251 18.116 20.9731 16.268C22.8211 14.42 25.0771 13.496 27.7411 13.496C30.4051 13.496 32.6611 14.42 34.5091 16.268C36.3571 18.116 37.2811 20.36 37.2811 23C37.2811 25.664 36.3571 27.92 34.5091 29.768ZM23.6011 23C23.6011 24.248 23.9971 25.268 24.7891 26.06C25.5811 26.852 26.5651 27.248 27.7411 27.248C28.9171 27.248 29.9011 26.852 30.6931 26.06C31.4851 25.268 31.8811 24.248 31.8811 23C31.8811 21.752 31.4851 20.732 30.6931 19.94C29.9011 19.148 28.9171 18.752 27.7411 18.752C26.5651 18.752 25.5811 19.148 24.7891 19.94C23.9971 20.732 23.6011 21.752 23.6011 23ZM53.5475 15.836V14H58.8035V31.1C58.8035 33.932 57.8795 36.068 56.0315 37.508C54.2075 38.972 51.9635 39.704 49.2995 39.704C45.2195 39.704 42.3755 38.252 40.7675 35.348L45.3755 32.684C46.2155 34.196 47.5835 34.952 49.4795 34.952C50.7755 34.952 51.7715 34.616 52.4675 33.944C53.1875 33.272 53.5475 32.324 53.5475 31.1V29.444C52.2755 31.004 50.5235 31.784 48.2915 31.784C45.7715 31.784 43.6595 30.896 41.9555 29.12C40.2755 27.344 39.4355 25.184 39.4355 22.64C39.4355 20.096 40.2755 17.948 41.9555 16.196C43.6355 14.396 45.7475 13.496 48.2915 13.496C50.5235 13.496 52.2755 14.276 53.5475 15.836ZM46.0595 25.664C46.8995 26.432 47.9435 26.816 49.1915 26.816C50.4395 26.816 51.4835 26.432 52.3235 25.664C53.1395 24.92 53.5475 23.912 53.5475 22.64C53.5475 21.368 53.1395 20.36 52.3235 19.616C51.4835 18.848 50.4395 18.464 49.1915 18.464C47.9435 18.464 46.8995 18.848 46.0595 19.616C45.2435 20.36 44.8355 21.368 44.8355 22.64C44.8355 23.912 45.2435 24.92 46.0595 25.664ZM67.7332 11.48C67.1092 12.104 66.3532 12.416 65.4652 12.416C64.5772 12.416 63.8092 12.104 63.1612 11.48C62.5372 10.832 62.2252 10.064 62.2252 9.176C62.2252 8.288 62.5372 7.532 63.1612 6.908C63.8092 6.26 64.5772 5.936 65.4652 5.936C66.3532 5.936 67.1092 6.26 67.7332 6.908C68.3812 7.532 68.7052 8.288 68.7052 9.176C68.7052 10.064 68.3812 10.832 67.7332 11.48ZM68.1652 32H62.7652V14H68.1652V32ZM85.6167 17.6L78.8127 26.96H85.9767V32H71.5767V28.4L78.3807 19.04H71.9367V14H85.6167V17.6ZM94.1707 11.48C93.5467 12.104 92.7907 12.416 91.9027 12.416C91.0147 12.416 90.2467 12.104 89.5987 11.48C88.9747 10.832 88.6627 10.064 88.6627 9.176C88.6627 8.288 88.9747 7.532 89.5987 6.908C90.2467 6.26 91.0147 5.936 91.9027 5.936C92.7907 5.936 93.5467 6.26 94.1707 6.908C94.8187 7.532 95.1427 8.288 95.1427 9.176C95.1427 10.064 94.8187 10.832 94.1707 11.48ZM94.6027 32H89.2027V14H94.6027V32Z" fill="#6C6EF9"/>
</svg>
